<?xml version="1.0" encoding="UTF-8" standalone="no"?>
<!-- Created with Inkscape (http://www.inkscape.org/) -->

<svg
   width="39.090118mm"
   height="44.170952mm"
   viewBox="0 0 39.090118 44.170952"
   version="1.1"
   id="svg1"
   xml:space="preserve"
   xmlns="http://www.w3.org/2000/svg"
   xmlns:svg="http://www.w3.org/2000/svg"><defs
     id="defs1" /><g
     id="layer8"
     style="display:inline;stroke:#ffffff;stroke-opacity:1"
     transform="translate(-62.554592,-2.912219)"><path
       style="fill:none;stroke:#ffffff;stroke-width:1;stroke-linejoin:round;stroke-dasharray:none;stroke-opacity:1"
       d="M 63.054592,40.856802 V 21.618717 l 18.787694,6.112436 v 18.852036 z"
       id="path13" /><path
       style="fill:none;stroke:#ffffff;stroke-width:1;stroke-linejoin:round;stroke-dasharray:none;stroke-opacity:1"
       d="M 81.842286,46.583189 101.14471,40.663778 V 21.554376 l -19.302424,6.176777 z"
       id="path14" /><path
       style="fill:none;stroke:#ffffff;stroke-width:1;stroke-linecap:round;stroke-linejoin:round;stroke-dasharray:none;stroke-opacity:1"
       d="M 101.14471,21.554376 89.949305,17.886915"
       id="path15" /><path
       style="fill:none;stroke:#ffffff;stroke-width:1;stroke-linecap:round;stroke-linejoin:round;stroke-dasharray:none;stroke-opacity:1"
       d="M 63.054592,21.618717 73.670926,18.208622"
       id="path16" /><path
       style="fill:none;stroke:#ffffff;stroke-width:1;stroke-linecap:round;stroke-linejoin:round;stroke-dasharray:none;stroke-opacity:1"
       d="m 69.424393,25.865251 v 3.731802 l 7.656629,2.509317 v -3.860486 z"
       id="path17" /><path
       style="fill:none;stroke:#ffffff;stroke-width:1;stroke-linecap:round;stroke-linejoin:round;stroke-dasharray:none;stroke-opacity:1"
       d="M 87.118284,28.408354 V 32.10637 L 95.09662,29.468371 95.03228,25.736568 Z"
       id="path18" /><path
       style="fill:none;stroke:#ffffff;stroke-width:1;stroke-linecap:round;stroke-linejoin:round;stroke-dasharray:none;stroke-opacity:1"
       d="m 82.075244,24.385993 c 0,0 -8.098335,-5.279072 -8.098335,-13.330403 0,-4.0429211 2.818843,-7.643371 7.961847,-7.643371 5.043463,0 7.688866,3.628715 7.688866,7.916348 0,7.530379 -7.552378,13.057426 -7.552378,13.057426 z"
       id="path19" /><circle
       style="fill:none;stroke:#ffffff;stroke-width:1;stroke-linecap:round;stroke-linejoin:round;stroke-dasharray:none;stroke-opacity:1"
       id="path20"
       cx="81.893257"
       cy="11.374063"
       r="4.1401591" /><path
       style="fill:none;stroke:#ffffff;stroke-width:1;stroke-linecap:round;stroke-linejoin:round;stroke-dasharray:none;stroke-opacity:1"
       d="m 72.657548,39.360863 v 1.045549 l 0.868612,0.305623 v -1.045549 z"
       id="path21" /><path
       style="fill:none;stroke:#ffffff;stroke-width:1;stroke-linecap:round;stroke-linejoin:round;stroke-dasharray:none;stroke-opacity:1"
       d="m 75.641667,40.290392 v 1.045549 l 0.868612,0.305623 v -1.045549 z"
       id="path21-8" /><path
       style="fill:none;stroke:#ffffff;stroke-width:1;stroke-linecap:round;stroke-linejoin:round;stroke-dasharray:none;stroke-opacity:1"
       d="m 78.572903,41.179165 v 1.045549 l 0.868612,0.305623 v -1.045549 z"
       id="path21-6" /><path
       style="fill:none;stroke:#ffffff;stroke-width:1;stroke-linecap:round;stroke-linejoin:round;stroke-dasharray:none;stroke-opacity:1"
       d="m 92.369834,39.09557 v 1.045549 l -0.868612,0.305623 v -1.045549 z"
       id="path21-9" /><path
       style="fill:none;stroke:#ffffff;stroke-width:1;stroke-linecap:round;stroke-linejoin:round;stroke-dasharray:none;stroke-opacity:1"
       d="m 95.397262,38.168856 v 1.045549 l -0.868612,0.305623 v -1.045549 z"
       id="path21-9-7" /><path
       style="fill:none;stroke:#ffffff;stroke-width:1;stroke-linecap:round;stroke-linejoin:round;stroke-dasharray:none;stroke-opacity:1"
       d="m 98.339074,37.363186 v 1.045549 l -0.868612,0.305623 v -1.045549 z"
       id="path21-9-3" /></g></svg>
