<?xml version="1.0" encoding="UTF-8" standalone="no"?>
<!-- Created with Inkscape (http://www.inkscape.org/) -->

<svg
   width="39.39883mm"
   height="39.484703mm"
   viewBox="0 0 39.39883 39.484703"
   version="1.1"
   id="svg1"
   xml:space="preserve"
   xmlns="http://www.w3.org/2000/svg"
   xmlns:svg="http://www.w3.org/2000/svg"><defs
     id="defs1" /><g
     id="layer10"
     style="display:inline;stroke:#ffffff;stroke-opacity:1"
     transform="translate(-145.45199,-0.91551525)"><path
       style="fill:none;stroke:#ffffff;stroke-width:1;stroke-linecap:round;stroke-linejoin:round;stroke-dasharray:none;stroke-opacity:1"
       d="M 165.10009,1.4155113 152.42482,6.2411178 165.10009,11.77448 175.8451,6.0480934 Z"
       id="path31" /><circle
       style="fill:none;stroke:#ffffff;stroke-width:1;stroke-linecap:round;stroke-linejoin:round;stroke-dasharray:none;stroke-opacity:1"
       id="path32"
       cx="164.87488"
       cy="6.0658288"
       r="1.3189992" /><path
       style="fill:none;stroke:#ffffff;stroke-width:1;stroke-linecap:round;stroke-linejoin:round;stroke-dasharray:none;stroke-opacity:1"
       d="m 166.19388,6.0658287 h 10.35434 v 3.5566291"
       id="path33" /><circle
       style="fill:none;stroke:#ffffff;stroke-width:1;stroke-linecap:round;stroke-linejoin:round;stroke-dasharray:none;stroke-opacity:1"
       id="path34"
       cx="176.54822"
       cy="11.054054"
       r="1.4315966" /><path
       style="fill:none;stroke:#ffffff;stroke-width:1;stroke-linecap:round;stroke-linejoin:round;stroke-dasharray:none;stroke-opacity:1"
       d="m 157.12396,8.292517 -1.1628,9.951481 h 17.69805 L 172.69174,7.7286286"
       id="path35" /><path
       style="fill:none;stroke:#ffffff;stroke-width:1;stroke-linecap:round;stroke-linejoin:round;stroke-dasharray:none;stroke-opacity:1"
       d="m 174.94432,3.1527297 h 6.82019 L 182.987,4.3752166 V 24.321057 H 147.27751 V 4.6969238 l 1.38334,-1.3833406 h 6.20895"
       id="path36" /><path
       style="fill:none;stroke:#ffffff;stroke-width:1;stroke-linecap:round;stroke-linejoin:round;stroke-dasharray:none;stroke-opacity:1"
       d="m 150.88063,5.2759964 h -1.54419 V 24.321057"
       id="path37" /><path
       style="fill:none;stroke:#ffffff;stroke-width:1;stroke-linecap:round;stroke-linejoin:round;stroke-dasharray:none;stroke-opacity:1"
       d="m 178.86915,5.2759964 h 1.54419 V 24.321057"
       id="path38" /><path
       style="fill:none;stroke:#ffffff;stroke-width:1;stroke-linecap:round;stroke-linejoin:round;stroke-dasharray:none;stroke-opacity:1"
       d="m 147.27751,24.321057 -1.32552,8.936705 v 3.503213 h 7.14291"
       id="path39" /><path
       style="fill:none;stroke:#ffffff;stroke-width:1;stroke-linecap:round;stroke-linejoin:round;stroke-dasharray:none;stroke-opacity:1"
       d="m 145.95199,33.257762 h 6.18749"
       id="path40" /><path
       style="fill:none;stroke:#ffffff;stroke-width:1;stroke-linecap:round;stroke-linejoin:round;stroke-dasharray:none;stroke-opacity:1"
       d="m 162.50118,33.303257 h 4.92504"
       id="path41" /><path
       style="fill:none;stroke:#ffffff;stroke-width:1;stroke-linecap:round;stroke-linejoin:round;stroke-dasharray:none;stroke-opacity:1"
       d="m 177.79936,33.39425 h 6.55146 v 3.41222 h -7.41589"
       id="path42" /><path
       style="fill:none;stroke:#ffffff;stroke-width:1;stroke-linecap:round;stroke-linejoin:round;stroke-dasharray:none;stroke-opacity:1"
       d="m 169.38256,36.669982 h -8.93422"
       id="path43" /><path
       style="fill:none;stroke:#ffffff;stroke-width:1;stroke-linecap:round;stroke-linejoin:round;stroke-dasharray:none;stroke-opacity:1"
       d="m 182.987,24.321057 1.36382,9.073193"
       id="path44" /><path
       style="fill:none;stroke:#ffffff;stroke-width:1;stroke-linecap:round;stroke-linejoin:round;stroke-dasharray:none;stroke-opacity:1"
       d="M 153.59536,39.900217 V 36.80647 c 0,0 -0.97305,-1.036673 -0.97305,-1.685375 0,-1.640774 0,-5.230055 0,-5.230055 0,0 0.43754,-0.827748 0.82774,-0.827749 0.36876,-1e-6 0.78225,0.782251 0.78225,0.782251 v 1.091912"
       id="path45" /><path
       style="fill:none;stroke:#ffffff;stroke-width:1;stroke-linecap:round;stroke-linejoin:round;stroke-dasharray:none;stroke-opacity:1"
       d="m 154.2323,29.845542 v -1.228397 c 0,0 0.60123,-1.137409 1.13741,-1.137409 0.47184,0 1.00092,1.000919 1.00092,1.000919 v 2.161074"
       id="path46" /><path
       style="fill:none;stroke:#ffffff;stroke-width:1;stroke-linecap:round;stroke-linejoin:round;stroke-dasharray:none;stroke-opacity:1"
       d="m 155.96425,27.876657 c 0,0 0.71156,-1.420586 1.43004,-1.420586 0.62197,0 1.31939,1.319392 1.31939,1.319392 v 2.502294"
       id="path47" /><path
       style="fill:none;stroke:#ffffff;stroke-width:1;stroke-linecap:round;stroke-linejoin:round;stroke-dasharray:none;stroke-opacity:1"
       d="m 158.71368,27.775463 c 0,0 0.42687,-0.807561 0.80756,-0.807561 0.40214,0 0.85306,0.853059 0.85306,0.853059 v 4.299394"
       id="path48" /><path
       style="fill:none;stroke:#ffffff;stroke-width:1;stroke-linecap:round;stroke-linejoin:round;stroke-dasharray:none;stroke-opacity:1"
       d="m 160.3743,30.391499 c 0,0 0.63314,-0.642561 1.02385,-0.591124 0.51552,0.06787 1.10303,1.103024 1.10303,1.103024 v 4.515435 l -2.05284,1.185209 v 3.136937"
       id="path49" /><path
       style="fill:none;stroke:#ffffff;stroke-width:1;stroke-linecap:round;stroke-linejoin:round;stroke-dasharray:none;stroke-opacity:1"
       d="m 175.97951,39.718231 v -2.456799 l 1.30432,-2.259137 v -4.883774 c 0,0 -0.24848,-1.205606 -0.73288,-1.269379 -0.41954,-0.05523 -0.89766,0.89766 -0.89766,0.89766"
       id="path50" /><path
       style="fill:none;stroke:#ffffff;stroke-width:1;stroke-linecap:round;stroke-linejoin:round;stroke-dasharray:none;stroke-opacity:1"
       d="m 169.74653,39.399757 v -2.68428 c 0,0 -1.89539,-0.364765 -1.89539,-1.0943 0,-1.405166 0,-4.137769 0,-4.137769 0,0 0.24528,-1.274494 0.73583,-1.274493 0.50254,10e-7 0.75381,1.305648 0.75381,1.305648 v 1.106252"
       id="path51" /><path
       style="fill:none;stroke:#ffffff;stroke-width:1;stroke-linecap:round;stroke-linejoin:round;stroke-dasharray:none;stroke-opacity:1"
       d="m 169.12365,30.789993 0.039,-2.479767 c 0,0 0.63956,-1.209924 1.20992,-1.209924 0.47179,0 1.00081,1.000813 1.00081,1.000813 v 2.300205"
       id="path52" /><path
       style="fill:none;stroke:#ffffff;stroke-width:1;stroke-linecap:round;stroke-linejoin:round;stroke-dasharray:none;stroke-opacity:1"
       d="m 171.02648,27.570455 c 0,0 0.59472,-1.385261 1.262,-1.38526 0.70981,1e-6 1.50574,1.505744 1.50574,1.505744 v 2.597785"
       id="path53" /><path
       style="fill:none;stroke:#ffffff;stroke-width:1;stroke-linecap:round;stroke-linejoin:round;stroke-dasharray:none;stroke-opacity:1"
       d="m 173.79422,27.690939 c 0,0 0.66049,-0.711757 1.05138,-0.60702 0.39636,0.106202 0.61551,1.066086 0.61551,1.066086 v 3.087753"
       id="path54" /></g></svg>
