<?xml version="1.0" encoding="UTF-8" standalone="no"?>
<!-- Created with Inkscape (http://www.inkscape.org/) -->

<svg
   width="23.694292mm"
   height="28.50852mm"
   viewBox="0 0 23.694292 28.50852"
   version="1.1"
   id="svg1"
   xml:space="preserve"
   xmlns="http://www.w3.org/2000/svg"
   xmlns:svg="http://www.w3.org/2000/svg"><defs
     id="defs1" /><g
     id="layer12"
     style="display:inline;stroke:#ffffff;stroke-opacity:1"
     transform="translate(-43.441553,-61.589542)"><circle
       style="fill:none;stroke:#ffffff;stroke-width:1;stroke-linecap:round;stroke-linejoin:round;stroke-dasharray:none;stroke-opacity:1"
       id="path72"
       cx="55.397961"
       cy="75.987221"
       r="4.5038991" /><path
       style="fill:none;stroke:#ffffff;stroke-width:1;stroke-linecap:round;stroke-linejoin:round;stroke-dasharray:none;stroke-opacity:1"
       d="m 53.660746,75.794194 1.351169,1.351169 2.348462,-2.348463"
       id="path73" /><path
       style="fill:none;stroke:#ffffff;stroke-width:1;stroke-linecap:round;stroke-linejoin:round;stroke-dasharray:none;stroke-opacity:1"
       d="m 46.261482,75.343802 c 0,0 0.332745,-3.678496 3.538779,-6.88453 2.56529,-2.56529 5.404678,-1.801561 5.404678,-1.801561 v 1.994586 l 3.377925,-3.377925 -3.184901,-3.184901 v 1.608534 c 0,0 -3.625544,-0.528752 -6.820191,2.123268 -4.973572,4.128786 -4.632582,8.750433 -4.632582,8.750433"
       id="path74" /><path
       style="fill:none;stroke:#ffffff;stroke-width:1;stroke-linecap:round;stroke-linejoin:round;stroke-dasharray:none;stroke-opacity:1"
       d="m 64.315915,76.343802 c 0,0 -0.332745,3.678496 -3.538779,6.88453 -2.56529,2.56529 -5.404678,1.801561 -5.404678,1.801561 v -1.994586 l -3.377925,3.377925 3.184901,3.184901 v -1.608534 c 0,0 3.625544,0.528752 6.820191,-2.123268 4.973572,-4.128786 4.632582,-8.750433 4.632582,-8.750433"
       id="path74-4" /><path
       style="fill:none;stroke:#ffffff;stroke-width:1.10244;stroke-linecap:round;stroke-linejoin:round;stroke-dasharray:none;stroke-opacity:1"
       d="m 44.957027,77.954844 c 0,0 -0.05064,2.167363 1.673229,4.736037 1.619621,2.413324 3.212594,2.781483 3.212594,2.781483"
       id="path75" /><path
       style="fill:none;stroke:#ffffff;stroke-width:1.12354;stroke-linecap:round;stroke-linejoin:round;stroke-dasharray:none;stroke-opacity:1"
       d="m 65.829564,73.614608 c 0,0 0.202124,-2.11111 -1.446914,-4.755262 -1.549309,-2.484237 -3.210539,-2.97046 -3.210539,-2.97046"
       id="path75-9" /></g></svg>
