<?xml version="1.0" encoding="UTF-8" standalone="no"?>
<!-- Created with Inkscape (http://www.inkscape.org/) -->

<svg
   width="39.763mm"
   height="40.560593mm"
   viewBox="0 0 39.763 40.560593"
   version="1.1"
   id="svg1"
   xml:space="preserve"
   xmlns="http://www.w3.org/2000/svg"
   xmlns:svg="http://www.w3.org/2000/svg"><defs
     id="defs1" /><g
     id="layer7"
     style="display:inline;stroke:#ffffff;stroke-opacity:1"
     transform="translate(-2.5736568,-2.9788609)"><path
       style="fill:none;stroke:#ffffff;stroke-width:1;stroke-linejoin:round;stroke-dasharray:none;stroke-opacity:1"
       d="m 15.69765,18.022973 c 0,0 -2.856773,-1.630288 -3.732135,1.585912 -0.792393,2.911362 3.706344,3.515387 3.706344,3.515387 z"
       id="path6" /><path
       style="fill:none;stroke:#ffffff;stroke-width:1;stroke-linejoin:round;stroke-dasharray:none;stroke-opacity:1"
       d="m 29.444579,17.960434 c 0,0 2.871775,-1.48925 3.449214,0.920512 0.847264,3.535794 -3.412217,4.243326 -3.412217,4.243326 z"
       id="path7" /><path
       style="fill:none;stroke:#ffffff;stroke-width:1;stroke-linejoin:round;stroke-dasharray:none;stroke-opacity:1"
       d="m 32.893793,18.880946 c 0,0 2.37264,-0.629351 3.048249,-1.546873 0.966812,-1.312996 0.818933,-4.822603 0.818933,-4.822603 l 2.593284,0.0455 c 0,0 -0.31093,4.672355 -1.273894,6.369476 -0.977854,1.72336 -5.575788,2.46785 -5.575788,2.46785 0,0 0.407917,-0.786262 0.474304,-1.216354 0.06609,-0.428191 -0.08509,-1.296996 -0.08509,-1.296996 z"
       id="path8" /><path
       style="fill:none;stroke:#ffffff;stroke-width:1;stroke-linejoin:round;stroke-dasharray:none;stroke-opacity:1"
       d="m 35.441583,8.0983332 c 0,0 -1.192323,4.4358868 2.616033,4.4358868 3.88487,0 2.388555,-4.344894 2.388555,-4.344894"
       id="path9" /><path
       style="fill:none;stroke:#ffffff;stroke-width:1;stroke-linejoin:round;stroke-dasharray:none;stroke-opacity:1"
       d="M 2.5736568,29.790077 H 42.336656"
       id="path10" /><path
       style="fill:none;stroke:#ffffff;stroke-width:1;stroke-linejoin:round;stroke-dasharray:none;stroke-opacity:1"
       d="m 12.114759,21.228611 c 0,0 -2.3528856,3.790418 -2.1418389,5.859126 0.2788959,2.733778 4.3356519,7.011707 4.3356519,7.011707 l 1.751606,-1.569625 c 0,0 -3.137118,-3.32813 -3.503212,-5.368554 -0.275149,-1.533543 1.173462,-4.603463 1.173462,-4.603463 L 12.93812,22.111327 Z"
       id="path11" /><path
       style="fill:none;stroke:#ffffff;stroke-width:1;stroke-linejoin:round;stroke-dasharray:none;stroke-opacity:1"
       d="m 16.793111,37.671901 c 0,0 -4.63376,-1.332245 -1.608736,-4.357269 3.524555,-3.524555 4.922319,1.494075 4.922319,1.494075"
       id="path12" /><rect
       style="fill:none;stroke:#ffffff;stroke-width:1;stroke-linejoin:round;stroke-dasharray:none;stroke-opacity:1"
       id="rect1"
       width="13.797705"
       height="13.242615"
       x="15.671859"
       y="3.4788609"
       ry="2.7666812" /><path
       id="rect2"
       style="fill:none;stroke:#ffffff;stroke-width:0.979895;stroke-linejoin:round;stroke-opacity:1"
       d="m 29.45951,7.5178939 c 1.845458,0 1.845458,0 1.845458,0 0.699062,0 1.261843,0.7269853 1.261843,1.6300118 v 2.1968693 c 0,0.903027 -0.562781,1.630012 -1.261843,1.630012 -2.254393,0 -0.317387,0.01674 -1.845458,0.01674 z" /><path
       id="rect2-8"
       style="fill:none;stroke:#ffffff;stroke-width:0.979895;stroke-linejoin:round;stroke-opacity:1"
       d="m 15.671859,7.3633517 c -1.845458,0 -1.845458,0 -1.845458,0 -0.699062,0 -1.261843,0.726985 -1.261843,1.630011 v 2.1968703 c 0,0.903027 0.562781,1.630012 1.261843,1.630012 2.254393,0 0.317387,0.01674 1.845458,0.01674 z" /><path
       id="rect2-8-3"
       style="fill:none;stroke:#ffffff;stroke-width:0.893254;stroke-linejoin:round;stroke-opacity:1"
       d="m 20.289222,3.4788609 c 0,1.8833951 0.05304,3.1496431 2.388288,3.0974298 2.097964,-0.046908 2.174689,-1.295933 2.174689,-3.0974298 z" /><circle
       style="fill:none;stroke:#ffffff;stroke-width:1;stroke-linejoin:round;stroke-dasharray:none;stroke-opacity:1"
       id="path2"
       cx="19.157658"
       cy="8.8917732"
       r="1.3672552" /><circle
       style="fill:none;stroke:#ffffff;stroke-width:1;stroke-linejoin:round;stroke-dasharray:none;stroke-opacity:1"
       id="path2-3"
       cx="25.725742"
       cy="8.8917732"
       r="1.3672552" /><path
       style="fill:none;stroke:#ffffff;stroke-width:1;stroke-linejoin:round;stroke-dasharray:none;stroke-opacity:1"
       d="m 18.980719,12.610918 v 1.576365 h 6.755849 v -1.608535"
       id="path3" /><rect
       style="fill:none;stroke:#ffffff;stroke-width:1;stroke-linejoin:round;stroke-dasharray:none;stroke-opacity:1"
       id="rect3"
       width="13.809715"
       height="12.805594"
       x="15.671859"
       y="16.721476"
       rx="1.3189992"
       ry="1.6240246" /><rect
       style="fill:none;stroke:#ffffff;stroke-width:1;stroke-linejoin:round;stroke-dasharray:none;stroke-opacity:1"
       id="rect4"
       width="10.19116"
       height="4.8680992"
       x="17.37957"
       y="19.608887"
       rx="1.3189992"
       ry="1.6240246" /><rect
       style="fill:none;stroke:#ffffff;stroke-width:1;stroke-linejoin:round;stroke-dasharray:none;stroke-opacity:1"
       id="rect5"
       width="25.250422"
       height="10.509635"
       x="9.8726873"
       y="32.529819" /><rect
       style="fill:none;stroke:#ffffff;stroke-width:1;stroke-linejoin:round;stroke-dasharray:none;stroke-opacity:1"
       id="rect6"
       width="0.77343631"
       height="0.90992504"
       x="18.107508"
       y="27.024773" /><rect
       style="fill:none;stroke:#ffffff;stroke-width:1;stroke-linejoin:round;stroke-dasharray:none;stroke-opacity:1"
       id="rect6-8"
       width="0.77343631"
       height="0.90992504"
       x="12.366461"
       y="34.448425" /><rect
       style="fill:none;stroke:#ffffff;stroke-width:1;stroke-linejoin:round;stroke-dasharray:none;stroke-opacity:1"
       id="rect6-6"
       width="0.77343631"
       height="0.90992504"
       x="12.366461"
       y="37.416683" /><rect
       style="fill:none;stroke:#ffffff;stroke-width:1;stroke-linejoin:round;stroke-dasharray:none;stroke-opacity:1"
       id="rect6-9"
       width="0.77343631"
       height="0.90992504"
       x="12.366461"
       y="40.384941" /><rect
       style="fill:none;stroke:#ffffff;stroke-width:1;stroke-linejoin:round;stroke-dasharray:none;stroke-opacity:1"
       id="rect6-83"
       width="0.77343631"
       height="0.90992504"
       x="15.19823"
       y="34.448425" /><rect
       style="fill:none;stroke:#ffffff;stroke-width:1;stroke-linejoin:round;stroke-dasharray:none;stroke-opacity:1"
       id="rect6-89"
       width="0.77343631"
       height="0.90992504"
       x="18.030001"
       y="34.448425" /><rect
       style="fill:none;stroke:#ffffff;stroke-width:1;stroke-linejoin:round;stroke-dasharray:none;stroke-opacity:1"
       id="rect6-92"
       width="0.77343631"
       height="0.90992504"
       x="20.861771"
       y="34.448425" /><rect
       style="fill:none;stroke:#ffffff;stroke-width:1;stroke-linejoin:round;stroke-dasharray:none;stroke-opacity:1"
       id="rect6-99"
       width="0.77343631"
       height="0.90992504"
       x="23.693541"
       y="34.448425" /><rect
       style="fill:none;stroke:#ffffff;stroke-width:1;stroke-linejoin:round;stroke-dasharray:none;stroke-opacity:1"
       id="rect6-3"
       width="0.77343631"
       height="0.90992504"
       x="26.525311"
       y="34.448425" /><rect
       style="fill:none;stroke:#ffffff;stroke-width:1;stroke-linejoin:round;stroke-dasharray:none;stroke-opacity:1"
       id="rect6-81"
       width="0.77343631"
       height="0.90992504"
       x="29.35708"
       y="34.448425" /><rect
       style="fill:none;stroke:#ffffff;stroke-width:1;stroke-linejoin:round;stroke-dasharray:none;stroke-opacity:1"
       id="rect6-82"
       width="0.77343631"
       height="0.90992504"
       x="32.18885"
       y="34.448425" /><rect
       style="fill:none;stroke:#ffffff;stroke-width:1;stroke-linejoin:round;stroke-dasharray:none;stroke-opacity:1"
       id="rect6-90"
       width="0.77343631"
       height="0.90992504"
       x="15.19823"
       y="37.416683" /><rect
       style="fill:none;stroke:#ffffff;stroke-width:1;stroke-linejoin:round;stroke-dasharray:none;stroke-opacity:1"
       id="rect6-96"
       width="0.77343631"
       height="0.90992504"
       x="18.030001"
       y="37.416683" /><rect
       style="fill:none;stroke:#ffffff;stroke-width:1;stroke-linejoin:round;stroke-dasharray:none;stroke-opacity:1"
       id="rect6-0"
       width="0.77343631"
       height="0.90992504"
       x="20.861771"
       y="37.416683" /><rect
       style="fill:none;stroke:#ffffff;stroke-width:1;stroke-linejoin:round;stroke-dasharray:none;stroke-opacity:1"
       id="rect6-1"
       width="0.77343631"
       height="0.90992504"
       x="23.693541"
       y="37.416683" /><rect
       style="fill:none;stroke:#ffffff;stroke-width:1;stroke-linejoin:round;stroke-dasharray:none;stroke-opacity:1"
       id="rect6-67"
       width="0.77343631"
       height="0.90992504"
       x="26.525311"
       y="37.416683" /><rect
       style="fill:none;stroke:#ffffff;stroke-width:1;stroke-linejoin:round;stroke-dasharray:none;stroke-opacity:1"
       id="rect6-64"
       width="0.77343631"
       height="0.90992504"
       x="29.35708"
       y="37.416683" /><rect
       style="fill:none;stroke:#ffffff;stroke-width:1;stroke-linejoin:round;stroke-dasharray:none;stroke-opacity:1"
       id="rect6-5"
       width="0.77343631"
       height="0.90992504"
       x="32.18885"
       y="37.416683" /><rect
       style="fill:none;stroke:#ffffff;stroke-width:1;stroke-linejoin:round;stroke-dasharray:none;stroke-opacity:1"
       id="rect6-06"
       width="0.77343631"
       height="0.90992504"
       x="15.19823"
       y="40.384941" /><rect
       style="fill:none;stroke:#ffffff;stroke-width:1;stroke-linejoin:round;stroke-dasharray:none;stroke-opacity:1"
       id="rect6-28"
       width="0.77343631"
       height="0.90992504"
       x="18.030001"
       y="40.384941" /><rect
       style="fill:none;stroke:#ffffff;stroke-width:1;stroke-linejoin:round;stroke-dasharray:none;stroke-opacity:1"
       id="rect6-70"
       width="0.77343631"
       height="0.90992504"
       x="20.861771"
       y="40.384941" /><rect
       style="fill:none;stroke:#ffffff;stroke-width:1;stroke-linejoin:round;stroke-dasharray:none;stroke-opacity:1"
       id="rect6-37"
       width="0.77343631"
       height="0.90992504"
       x="23.693541"
       y="40.384941" /><rect
       style="fill:none;stroke:#ffffff;stroke-width:1;stroke-linejoin:round;stroke-dasharray:none;stroke-opacity:1"
       id="rect6-45"
       width="0.77343631"
       height="0.90992504"
       x="26.525311"
       y="40.384941" /><rect
       style="fill:none;stroke:#ffffff;stroke-width:1;stroke-linejoin:round;stroke-dasharray:none;stroke-opacity:1"
       id="rect6-909"
       width="0.77343631"
       height="0.90992504"
       x="29.35708"
       y="40.384941" /><rect
       style="fill:none;stroke:#ffffff;stroke-width:1;stroke-linejoin:round;stroke-dasharray:none;stroke-opacity:1"
       id="rect6-10"
       width="0.77343631"
       height="0.90992504"
       x="32.18885"
       y="40.384941" /><rect
       style="fill:none;stroke:#ffffff;stroke-width:1;stroke-linejoin:round;stroke-dasharray:none;stroke-opacity:1"
       id="rect6-2"
       width="0.77343631"
       height="0.90992504"
       x="20.939278"
       y="27.024773" /><rect
       style="fill:none;stroke:#ffffff;stroke-width:1;stroke-linejoin:round;stroke-dasharray:none;stroke-opacity:1"
       id="rect6-7"
       width="0.77343631"
       height="0.90992504"
       x="23.771048"
       y="27.024773" /><rect
       style="fill:none;stroke:#ffffff;stroke-width:1;stroke-linejoin:round;stroke-dasharray:none;stroke-opacity:1"
       id="rect6-4"
       width="0.77343631"
       height="0.90992504"
       x="26.602818"
       y="27.024773" /></g></svg>
